<svg width="226" height="260" viewBox="0 0 226 260" fill="none" xmlns="http://www.w3.org/2000/svg">
<path d="M225.559 65.3513L113.051 0V45.2174L225.559 110.288L225.559 65.3513Z" fill="#FF6492"/>
<path d="M225.559 110.288L191.807 130L113.03 84.3242L68.0179 110.324L34.259 92.0539L113.051 45.2173L225.559 110.288Z" fill="#141446"/>
<path d="M68.0179 110.324L34.259 92.054V130L68.0179 110.324Z" fill="#A14474"/>
<path d="M0.5 194.649L113.03 130L225.559 194.649L113.03 260L0.5 194.649Z" fill="#141446"/>
<path d="M225.559 149.783L113.03 83.6218V130L225.559 194.649L225.559 149.783Z" fill="#FF6492"/>
<path d="M34.2589 130V92.0541L113.051 45.2174V0L0.5 65.3513V194.649L113.03 130V83.6216L34.2589 130Z" fill="#7A77FF"/>
</svg>
